<svg id="Capa_1" enable-background="new 0 0 512 512" height="512" viewBox="0 0 512 512" width="512" xmlns="http://www.w3.org/2000/svg"><g><g><g><g><path d="m512 58.815v318.707c0 8.54-6.923 15.453-15.453 15.453h-481.094c-8.53 0-15.453-6.913-15.453-15.453v-318.707z" fill="#fde784"/><path d="m512 58.815v318.707c0 8.54-6.923 15.453-15.453 15.453h-44.061c8.54 0 15.453-6.913 15.453-15.453v-318.707z" fill="#fddd45"/><path d="m158.566 4.185v64.932h-158.566v-49.48c0-8.53 6.923-15.453 15.453-15.453h143.113z" fill="#eef4f5"/><path d="m496.547 4.186h-348.284v64.932h363.737v-49.479c0-8.534-6.918-15.453-15.453-15.453z" fill="#cbe5e7"/><path d="m512 19.64v49.48h-44.061v-49.48c0-8.54-6.912-15.453-15.453-15.453h44.061c8.53.001 15.453 6.913 15.453 15.453z" fill="#a9d3d8"/><g><g id="XMLID_593_"><path d="m46.96 44.379h-.107c-4.267 0-7.726-3.459-7.726-7.726s3.459-7.726 7.726-7.726h.107c4.267 0 7.726 3.459 7.726 7.726s-3.459 7.726-7.726 7.726z" fill="#cbe5e7"/></g><g id="XMLID_591_"><path d="m73.844 44.379h-.107c-4.267 0-7.726-3.459-7.726-7.726s3.459-7.726 7.726-7.726h.107c4.267 0 7.726 3.459 7.726 7.726s-3.459 7.726-7.726 7.726z" fill="#cbe5e7"/></g><g id="XMLID_589_"><path d="m100.728 44.379h-.107c-4.267 0-7.726-3.459-7.726-7.726s3.459-7.726 7.726-7.726h.107c4.267 0 7.726 3.459 7.726 7.726s-3.459 7.726-7.726 7.726z" fill="#cbe5e7"/></g></g></g></g><g><path d="m348.267 254.221v-55.96c0-9.197-7.456-16.653-16.653-16.653-6.098 0-11.415 3.288-14.316 8.177-5.31-2.026-11.063-3.147-17.075-3.147-26.492 0-48.044 21.553-48.044 48.044s21.552 48.044 48.044 48.044c8.23 0 15.982-2.083 22.761-5.745.455.507.922 1.006 1.413 1.487 5.929 5.812 13.717 8.99 21.994 8.99.216 0 .433-.002.649-.007 9.195-.184 16.5-7.788 16.316-16.983-.172-8.555-6.766-15.474-15.089-16.247zm-48.044-4.8c-8.127 0-14.738-6.612-14.738-14.738 0-8.127 6.611-14.739 14.738-14.739s14.739 6.612 14.739 14.739c0 8.126-6.612 14.738-14.739 14.738z" fill="#5169cd"/></g><g><path d="m246.227 307.719-73.346-186.442c-2.283-5.803-7.463-10.132-13.655-10.875-7.629-.915-14.762 3.447-17.511 10.436l-73.518 186.881c-1.163 2.956-3.565 5.264-6.58 6.265-6.942 2.305-11.856 9.043-11.36 16.868.56 8.838 8.206 15.569 17.062 15.569h36.411c8.967 0 16.682-6.891 17.104-15.848.45-9.563-7.17-17.458-16.634-17.458h-2.337l16.169-41.102c.775-1.97 2.676-3.265 4.793-3.265h68.771c2.117 0 4.018 1.295 4.793 3.265l16.169 41.102h-1.867c-8.967 0-16.682 6.891-17.104 15.848-.45 9.563 7.17 17.458 16.634 17.458h36.882c8.856 0 16.503-6.731 17.062-15.569.496-7.824-4.419-14.563-11.36-16.868-3.013-1.001-5.415-3.308-6.578-6.265zm-111.039-79.312 17.23-43.799c1.713-4.354 7.874-4.354 9.587 0l17.231 43.799c1.329 3.379-1.162 7.037-4.793 7.037h-34.461c-3.632-.001-6.124-3.658-4.794-7.037z" fill="#5169cd"/></g><g><g><g><g><g><g><g><g><g><path d="m457.394 495.494-9.304 9.304c-4.023 4.023-10.546 4.023-14.569 0l-40.771-40.771 23.873-23.872 40.771 40.771c4.023 4.023 4.023 10.545 0 14.568z" fill="#557983"/><path d="m437.964 461.5c-2.381 5.079-5.666 9.83-9.853 14.017-4.142 4.131-8.86 7.449-13.995 9.875l-21.365-21.365 23.87-23.87z" fill="#3f5959"/></g><g><path d="m412.148 459.552c-10.713 10.713-28.082 10.713-38.795 0l-19.398-19.398 38.795-38.796 19.398 19.398c10.713 10.714 10.713 28.083 0 38.796z" fill="#27e19d"/><path d="m416.622 426.626c-10.112 14.593-22.798 27.278-37.391 37.391-2.111-1.185-4.086-2.675-5.88-4.469l-19.401-19.389 38.802-38.802 19.401 19.401c1.794 1.794 3.283 3.769 4.469 5.868z" fill="#26d192"/></g><g><circle cx="295.542" cy="342.946" fill="#a9d3d8" r="124.66"/><path d="m420.199 342.951c0 68.845-55.81 124.655-124.655 124.655-6.964 0-13.803-.576-20.45-1.67 59.117-9.762 104.205-61.103 104.205-122.985 0-61.893-45.088-113.234-104.205-122.996 6.648-1.095 13.487-1.67 20.45-1.67 68.845 0 124.655 55.809 124.655 124.666z" fill="#90bac4"/><g><path d="m285.226 269.024c0-5.048 1.628-9.89 4.502-13.856 1.679-.093 3.369-.144 5.069-.144 13.176 0 25.662 2.895 36.88 8.097.505 1.916.762 3.904.762 5.903 0 13.021-10.59 23.612-23.601 23.612-13.021-.001-23.612-10.591-23.612-23.612z" fill="#fef5c8"/><path d="m382.723 342.949c0 48.552-39.363 87.926-87.926 87.926-34.655 0-64.623-20.047-78.943-49.181h35.747c5.645 0 10.333-4.183 10.662-9.529.021-.216.021-.433.021-.649.01-4.389-2.792-8.324-6.985-9.725-5.419-1.782-9.735-5.893-11.837-11.26l-22.056-56.021c10.446-15.803 25.878-28.042 44.04-34.47-.33 3.894-.639 8.066-.659 9.004 0 24.261 19.759 44.02 44.051 44.02 7.263 0 14.474-1.823 20.841-5.264 1.164-.628 2.421-.927 3.678-.927 2.122 0 4.224.876 5.728 2.534.412.453.824.907 1.267 1.339 4.852 4.759 11.353 7.417 18.224 7.417h.34c.051 0 .154-.01.206-.01 4.935-.093 9.066-3.667 9.879-8.509l1.473-11.476c7.788 13.114 12.249 28.422 12.249 44.781z" fill="#fef5c8"/><g><g><path d="m257.741 354.467c-3.245-1.071-5.841-3.564-7.088-6.748l-23.828-60.554c-12.465 15.175-19.955 34.604-19.955 55.784 0 17.06 4.862 32.986 13.289 46.471h31.441c9.539 0 17.781-7.252 18.378-16.771.537-8.437-4.758-15.689-12.237-18.182zm-37.581 34.954h31.441c9.539 0 17.781-7.252 18.378-16.771.536-8.437-4.759-15.69-12.239-18.183-3.245-1.071-5.841-3.564-7.088-6.748l-23.828-60.554" fill="#6d81d5"/></g></g><path d="m286.947 260.205c.711-1.782 1.648-3.472 2.781-5.027 1.679-.103 3.369-.155 5.069-.155 13.166 0 25.662 2.895 36.88 8.097.505 1.916.762 3.904.762 5.903 0 6.954-3.018 13.207-7.819 17.534-9.9-11.837-22.87-21.036-37.673-26.352z" fill="#fde784"/><path d="m382.723 342.949c0 48.552-39.374 87.916-87.926 87.916-6.449 0-12.754-.69-18.811-2.019 39.507-8.612 69.105-43.793 69.105-85.897 0-12.228-2.503-23.89-7.026-34.47.361.268.701.577 1.02.927.412.453.824.907 1.267 1.339 4.852 4.759 11.353 7.417 18.224 7.417h.34c.051 0 .154-.01.206-.01 4.935-.093 9.066-3.667 9.879-8.509l1.473-11.476c7.788 13.115 12.249 28.423 12.249 44.782z" fill="#fde784"/><g><path d="m321.19 259.062c2.205 2.73 3.523 6.191 3.523 9.962 0 8.757-7.119 15.885-15.875 15.885-8.767 0-15.885-7.129-15.885-15.885 0-5.893 3.214-11.044 7.994-13.784-2.029-.144-4.079-.216-6.15-.216-13.382 0-26.074 2.988-37.427 8.344-.206 1.854-.309 3.75-.309 5.656 0 28.546 23.231 51.767 51.777 51.767 8.86 0 17.214-2.246 24.518-6.191.494.546.999 1.082 1.525 1.607 6.387 6.264 14.783 9.684 23.694 9.684.237 0 .474 0 .701-.01 8.829-.175 16.04-6.696 17.369-15.123-9.674-24.572-30.082-43.733-55.455-51.696z" fill="#6d81d5"/></g></g></g></g></g></g></g></g></g></g></g></g><g><g><path d="m447.257 190.428h-23.726c-4.267 0-7.726-3.459-7.726-7.726s3.459-7.726 7.726-7.726h23.726c4.267 0 7.726 3.459 7.726 7.726s-3.459 7.726-7.726 7.726z" fill="#fddd45"/></g><g><path d="m447.257 217.439h-23.726c-4.267 0-7.726-3.459-7.726-7.726s3.459-7.726 7.726-7.726h23.726c4.267 0 7.726 3.459 7.726 7.726s-3.459 7.726-7.726 7.726z" fill="#fddd45"/></g><g><path d="m447.257 244.451h-23.726c-4.267 0-7.726-3.459-7.726-7.726s3.459-7.726 7.726-7.726h23.726c4.267 0 7.726 3.459 7.726 7.726s-3.459 7.726-7.726 7.726z" fill="#fddd45"/></g></g><path d="m436.955 145.492h-186.065c-5.69 0-10.302-4.612-10.302-10.302v-14.243c0-5.69 4.612-10.302 10.302-10.302h186.066c5.69 0 10.302 4.612 10.302 10.302v14.243c-.001 5.69-4.613 10.302-10.303 10.302z" fill="#d9ecfd"/><path d="m447.253 120.945v14.247c0 5.687-4.605 10.302-10.302 10.302h-32.049c5.687 0 10.302-4.615 10.302-10.302v-14.247c0-5.687-4.615-10.302-10.302-10.302h32.049c5.697.001 10.302 4.616 10.302 10.302z" fill="#b5dbfd"/></g></svg>